<svg style="color: #ff8e16;" height="512" viewBox="0 0 60 60" width="512" xmlns="http://www.w3.org/2000/svg"><g id="Page-1" fill="none" fill-rule="evenodd"><g id="013---Venice" fill="rgb(0,0,0)" fill-rule="nonzero" transform="translate(0 -1)"><path id="Shape" d="m59 56c-1.917821-.0355552-3.7968399.5425506-5.363 1.65-2.5899981 1.7998993-6.0260019 1.7998993-8.616 0-3.2358247-2.1999478-7.4871753-2.1999478-10.723 0-1.2470896.9119772-2.7604616 1.3865538-4.305 1.35-1.5448253.0363999-3.058466-.4381507-4.306-1.35-1.5656062-1.1070415-3.4438589-1.6851272-5.361-1.65-1.9168011-.0349132-3.7946707.5431623-5.36 1.65-1.245756.9108573-2.7571721 1.3853716-4.3 1.35-1.54288094.0357466-3.05441475-.4388047-4.3-1.35-1.56677163-1.1085072-3.44709003-1.6866894-5.366-1.65-.55228475 0-1 .4477153-1 1s.44771525 1 1 1c1.54280666-.0352218 3.05417576.4392778 4.3 1.35 1.56547635 1.1080725 3.44439043 1.6862538 5.362 1.65 1.9165303.0351898 3.7941663-.5429217 5.359-1.65 1.2472263-.9117064 2.760504-1.3862535 4.305-1.35 1.5448253-.0363999 3.058466.4381507 4.306 1.35 1.5656062 1.1070415 3.4438589 1.6851272 5.361 1.65 1.9168604.0353337 3.7948582-.5427813 5.36-1.65 2.5888804-1.7999615 6.0241196-1.7999615 8.613 0 3.2369301 2.1999129 7.4890699 2.1999129 10.726 0 1.2482178-.9119996 2.7625371-1.3865426 4.308-1.35.5522847 0 1-.4477153 1-1s-.4477153-1-1-1z"/><path id="Shape" d="m58.652 18.822-18.652-6.435v-6.674c-.0000359-.85362881-.5418581-1.61314382-1.349-1.891l-8-2.755c-.4211532-.14530042-.8788468-.14530042-1.3 0l-8 2.755c-.7658951.26089316-1.2991453.95755237-1.351 1.765v.09 6.71l-18.652 6.435c-.80674713.2781976-1.34811113 1.0376333-1.348 1.891v28.333c.00156618 1.0386687.79795726 1.9032722 1.833 1.99 1.2519485.12192 2.44873488.5755045 3.467 1.314 1.56566428 1.1076905 3.44444978 1.6858322 5.362 1.65.113 0 .211-.01.32-.013h.017c.009 0 .017-.005.026-.005 1.7920274-.0365139 3.5326179-.605687 5-1.635 1.2465095-.9097978 2.7582087-1.3832363 4.301-1.347 1.5448253-.0363999 3.058466.4381507 4.306 1.35 1.5656062 1.1070415 3.4438589 1.6851272 5.361 1.65 1.9168604.0353337 3.7948582-.5427813 5.36-1.65 2.5888804-1.7999615 6.0241196-1.7999615 8.613 0 1.4709099 1.0306476 3.2153035 1.6001603 5.011 1.636h.023.015c.107 0 .2.013.313.013 1.9175601.0359024 3.796367-.5422459 5.362-1.65 1.0213028-.7391268 2.2211484-1.1926933 3.476-1.314 1.0350563-.0862049 1.8318711-.9503623 1.834-1.989v-28.333c.0001111-.8533667-.5412529-1.6128024-1.348-1.891zm-8.652 17.017-6-2.069v-2.77c0-1.0717968.5717967-2.0621779 1.5-2.5980763.9282032-.5358984 2.0717968-.5358984 3 0 .9282033.5358984 1.5 1.5262795 1.5 2.5980763zm.532-8.381c-1.4311525-1.4282965-3.5816691-1.8540583-5.4490809-1.0788153-1.8674117.7752429-3.0841066 2.5988789-3.0829191 4.6208153v2.08l-7-2.414v-6.666c0-2.7614237-2.2385763-5-5-5s-5 2.2385763-5 5v6.666l-7 2.414v-2.08c0-2.7614237-2.2385763-5-5-5s-5 2.2385763-5 5v5.528l-6 2.072v-12.887l19.326-6.668c.4031999-.1390389.6738423-.5185004.674-.945v-7.287l8-2.755 8 2.755v7.287c.0001577.4264996.2708001.8059611.674.945l19.326 6.668v12.887l-6-2.069v-5.531c-.0007598-1.3285244-.5287412-2.6024414-1.468-3.542zm-17.532 2.518-2.349-.809c-.4213195-.1443049-.8786805-.1443049-1.3 0l-2.351.81v-5.977c0-1.6568542 1.3431458-3 3-3s3 1.3431458 3 3zm-17 3.794-6 2.069v-4.839c0-1.6568542 1.3431458-3 3-3s3 1.3431458 3 3zm42-13.057v2.887l-18-6.21v-2.89zm-28-17.755 8 2.755v2.987l-7.348-2.533c-.4211532-.14530042-.8788468-.14530042-1.3 0l-7.352 2.533v-2.987zm-10 11.542v2.884l-18 6.216v-2.887zm19.658 34.5c-1.9168011-.0349132-3.7946707.5431623-5.36 1.65-1.2470896.9119772-2.7604616 1.3865538-4.305 1.35-1.5448253.0363999-3.058466-.4381507-4.306-1.35-1.5656062-1.1070415-3.4438589-1.6851272-5.361-1.65-1.9168011-.0349132-3.7946707.5431623-5.36 1.65-.8617581.6119509-1.8438188 1.0336133-2.881 1.237.848-6.096 8.558-10.887 17.915-10.887s17.069 4.793 17.915 10.89c-1.0419521-.2025639-2.0286256-.6253266-2.894-1.24-1.5661601-1.1074494-3.445179-1.6855552-5.363-1.65zm18.329.044c-1.5648259.1486541-3.0639928.7021396-4.35 1.606-1.0864715.785367-2.3738688 1.2455976-3.712 1.327-.755-7.241-9.395-12.977-19.925-12.977s-19.171 5.736-19.925 12.978c-1.3401166-.0799947-2.62958966-.5406942-3.717-1.328-1.28819125-.9050664-2.790435-1.4579803-4.358-1.604v-8.333l28-9.655 28 9.654z"/><path id="Shape" d="m10.607 39.861-5.933 2.046c-.4031999.1390389-.67384228.5185004-.674.945v3.77c0 .5522847.44771525 1 1 1s1-.4477153 1-1v-3.057l5.259-1.814c.3467092-.1094373.6067058-.3984268.6790155-.7547344.0723098-.3563075-.0544614-.7237884-.3310797-.959725-.2766184-.2359366-.659496-.3031515-.9999358-.1755406z"/><path id="Shape" d="m35.34 12.013-5.014-1.727c-.2110317-.0740152-.4409683-.0740152-.652 0l-5.014 1.727c-.3467092.1094373-.6067058.3984268-.6790155.7547344-.0723098.3563075.0544614.7237884.3310797.959725.2766184.2359366.659496.3031515.9999358.1755406l4.688-1.614 4.688 1.611c.5168504.1631417 1.0695878-.1151515 1.2463372-.627508.1767495-.5123565-.0868328-1.0722584-.5943372-1.262492z"/></g></g></svg>